<?xml version="1.0" standalone="no"?>
<!DOCTYPE svg PUBLIC "-//W3C//DTD SVG 20010904//EN"
 "http://www.w3.org/TR/2001/REC-SVG-20010904/DTD/svg10.dtd">
<svg version="1.0" xmlns="http://www.w3.org/2000/svg"
 width="640.000000pt" height="640.000000pt" viewBox="0 0 640.000000 640.000000"
 preserveAspectRatio="xMidYMid meet">
<metadata>
Created by potrace 1.16, written by Peter Selinger 2001-2019
</metadata>
<g transform="translate(0.000000,640.000000) scale(0.100000,-0.100000)"
fill="#353535" stroke="none">
<path d="M4886 4530 c-73 -13 -143 -38 -206 -72 -30 -17 -74 -41 -97 -54 -22
-12 -58 -33 -80 -47 -21 -13 -105 -62 -188 -109 -82 -47 -233 -134 -335 -193
-102 -59 -210 -121 -240 -137 -30 -17 -59 -34 -65 -38 -5 -4 -30 -19 -55 -32
-25 -14 -85 -49 -135 -78 -130 -76 -135 -79 -305 -176 -118 -67 -172 -105
-227 -159 -123 -119 -183 -265 -183 -441 0 -74 20 -197 34 -212 7 -6 76 32 76
42 -1 6 -7 38 -15 71 -19 76 -18 122 0 210 37 177 130 285 350 409 152 86 206
117 335 193 47 28 193 113 325 188 132 76 278 160 325 188 47 27 109 62 138
78 28 16 71 41 95 56 60 38 242 141 309 175 206 103 445 65 612 -97 163 -160
199 -428 85 -630 -60 -107 -115 -155 -286 -253 -37 -21 -160 -92 -273 -157
-113 -65 -218 -126 -235 -135 -16 -10 -70 -41 -120 -70 -139 -81 -152 -89
-191 -110 -19 -11 -104 -60 -187 -109 -84 -48 -226 -130 -317 -181 -91 -51
-176 -101 -190 -110 -125 -83 -339 -88 -494 -10 l-79 39 -31 -22 c-17 -12 -33
-23 -35 -25 -16 -9 112 -80 196 -108 103 -35 264 -34 368 1 40 13 89 33 109
45 20 11 52 29 72 40 19 11 104 60 187 108 84 49 224 130 312 181 88 51 167
96 175 101 22 14 270 157 555 320 357 204 373 214 448 293 157 164 211 398
142 606 -49 144 -126 244 -253 329 -115 76 -298 115 -426 92z"/>
<path d="M2888 3980 c-93 -23 -93 -23 -384 -191 -126 -73 -258 -149 -294 -169
-36 -20 -110 -63 -165 -95 -289 -168 -780 -451 -830 -479 -199 -111 -287 -197
-353 -350 -99 -223 -43 -503 135 -678 101 -100 291 -178 430 -178 62 0 225 40
273 67 67 38 306 175 430 247 69 40 262 151 430 248 168 97 357 206 420 243
63 37 180 103 259 148 116 66 160 97 223 160 43 42 78 81 78 87 0 5 13 31 29
58 65 110 87 273 56 418 -10 46 -21 84 -26 84 -4 0 -23 -9 -42 -20 -34 -20
-34 -21 -21 -58 19 -53 18 -216 -2 -283 -46 -156 -131 -251 -319 -358 -72 -41
-184 -105 -250 -144 -247 -144 -355 -207 -530 -307 -99 -57 -277 -159 -395
-228 -118 -69 -237 -138 -265 -154 -27 -16 -82 -45 -120 -64 -344 -168 -755
88 -755 471 0 85 17 155 60 241 56 115 124 175 330 293 91 52 262 151 380 219
118 69 229 133 245 142 17 9 104 60 195 112 91 53 181 105 200 116 19 11 76
43 125 72 50 29 110 64 135 78 25 14 87 49 138 79 139 81 187 96 312 97 113 1
189 -18 277 -68 l41 -24 37 25 36 24 -25 20 c-45 35 -169 87 -248 103 -98 20
-154 19 -250 -4z"/>
</g>
</svg>
